<svg width="1028" height="1028" viewBox="0 0 1028 1028" fill="none" xmlns="http://www.w3.org/2000/svg">
<circle cx="514" cy="514" r="494" stroke="#CA633E" stroke-width="40"/>
<path d="M166.729 592.906L165.9 594.695L166.813 596.442L166.892 596.593C170.519 603.531 173.343 608.934 175.824 612.947C178.296 616.946 180.723 620.078 183.743 622.017C191.847 627.217 202.274 627.071 210.229 621.646C213.194 619.624 215.531 616.425 217.89 612.358C220.258 608.276 222.93 602.796 226.361 595.76L226.436 595.606L383.633 273.228C383.739 273.01 383.844 272.796 383.947 272.585C386.57 267.209 388.265 263.734 388.849 260.374C390.26 252.26 387.411 243.989 381.303 238.464C378.773 236.176 375.298 234.483 369.92 231.862C369.709 231.759 369.495 231.655 369.277 231.549C369.056 231.441 368.837 231.334 368.622 231.229C363.152 228.56 359.618 226.836 356.213 226.256C347.988 224.856 339.626 227.828 334.13 234.105C331.855 236.704 330.202 240.271 327.643 245.794C327.542 246.012 327.44 246.232 327.336 246.456L166.729 592.906Z" fill="#CA633E" stroke="#CA633E" stroke-width="8"/>
<rect x="724.319" y="243.825" width="68" height="512" rx="24" fill="#CA633E" stroke="#CA633E" stroke-width="8"/>
<rect x="475.319" y="243.825" width="68" height="512" rx="24" fill="#CA633E" stroke="#CA633E" stroke-width="8"/>
<path d="M165.858 631.588C165.858 644.843 176.603 655.588 189.858 655.588L767.858 655.588C781.113 655.588 791.858 644.843 791.858 631.588L791.858 613.588C791.858 600.334 781.113 589.588 767.858 589.588L173.358 589.588C169.216 589.588 165.858 592.946 165.858 597.088L165.858 631.588Z" fill="#CA633E" stroke="#CA633E" stroke-width="8"/>
</svg>
