<svg width="948" height="948" viewBox="0 0 948 948" fill="none" xmlns="http://www.w3.org/2000/svg">
<circle cx="474" cy="474" r="467.5" fill="#111111" stroke="#A8EC41" stroke-width="13"/>
<path d="M310.217 204.519L334.38 216.301C339.597 218.845 343.15 220.583 345.787 222.152C348.358 223.68 349.545 224.76 350.273 225.742C351.928 227.974 352.854 230.662 352.925 233.439C352.956 234.662 352.685 236.243 351.601 239.031C350.489 241.89 348.76 245.448 346.216 250.665L201.525 547.396C198.523 553.553 196.453 557.785 194.587 560.883C192.753 563.93 191.475 565.247 190.359 565.98C187.757 567.69 184.644 568.447 181.548 568.125C180.22 567.987 178.48 567.405 175.45 565.542C172.369 563.649 168.586 560.842 163.088 556.754L117.804 523.075L276.108 215.847C278.714 210.789 280.493 207.347 282.086 204.795C283.637 202.31 284.72 201.161 285.701 200.456C287.926 198.859 290.584 197.976 293.322 197.925C294.53 197.902 296.085 198.175 298.815 199.239C301.618 200.331 305.103 202.025 310.217 204.519Z" fill="#A8EC41" stroke="#A8EC41" stroke-width="13"/>
<rect x="673.961" y="214.737" width="77" height="491" rx="13.5" stroke="#A8EC41" stroke-width="13"/>
<rect x="424.961" y="214.737" width="77" height="491" rx="13.5" stroke="#A8EC41" stroke-width="13"/>
<mask id="path-5-inside-1_157_4" fill="white">
<path d="M129.461 612.237C118.415 612.237 109.461 603.282 109.461 592.237L109.461 525.737C109.461 523.804 111.028 522.237 112.961 522.237L737.461 522.237C748.507 522.237 757.461 531.191 757.461 542.237L757.461 592.237C757.461 603.282 748.507 612.237 737.461 612.237L129.461 612.237Z"/>
</mask>
<path d="M129.461 612.237C118.415 612.237 109.461 603.282 109.461 592.237L109.461 525.737C109.461 523.804 111.028 522.237 112.961 522.237L737.461 522.237C748.507 522.237 757.461 531.191 757.461 542.237L757.461 592.237C757.461 603.282 748.507 612.237 737.461 612.237L129.461 612.237Z" fill="#A8EC41" stroke="#A8EC41" stroke-width="26" mask="url(#path-5-inside-1_157_4)"/>
</svg>
