<svg width="948" height="948" viewBox="0 0 948 948" fill="none" xmlns="http://www.w3.org/2000/svg">
<circle cx="474" cy="474" r="467.5" stroke="#F4D061" stroke-width="13"/>
<path d="M334.195 228.626L176.998 551.004C173.459 558.261 170.957 563.384 168.808 567.09C166.616 570.868 165.246 572.335 164.312 572.971C159.838 576.023 153.972 576.105 149.414 573.18C148.463 572.57 147.052 571.142 144.756 567.427C142.814 564.284 140.579 560.096 137.603 554.415L296.863 210.872C299.911 204.296 300.908 202.303 302.029 201.023C305.121 197.492 309.825 195.82 314.451 196.607C316.129 196.893 318.16 197.81 324.675 200.987C331.076 204.108 333.013 205.124 334.259 206.251C337.695 209.359 339.298 214.011 338.504 218.576C338.216 220.232 337.316 222.225 334.195 228.626Z" fill="#F4D061" stroke="#F4D061" stroke-width="13"/>
<rect x="694.819" y="214.325" width="47" height="491" rx="13.5" fill="#F4D061" stroke="#F4D061" stroke-width="13"/>
<rect x="445.819" y="214.325" width="47" height="491" rx="13.5" fill="#F4D061" stroke="#F4D061" stroke-width="13"/>
<mask id="path-5-inside-1_172_6" fill="white">
<path d="M149.858 611.588C138.812 611.588 129.858 602.634 129.858 591.588L129.858 557.088C129.858 555.155 131.425 553.588 133.358 553.588L727.858 553.588C738.903 553.588 747.858 562.543 747.858 573.588L747.858 591.588C747.858 602.634 738.903 611.588 727.858 611.588L149.858 611.588Z"/>
</mask>
<path d="M149.858 611.588C138.812 611.588 129.858 602.634 129.858 591.588L129.858 557.088C129.858 555.155 131.425 553.588 133.358 553.588L727.858 553.588C738.903 553.588 747.858 562.543 747.858 573.588L747.858 591.588C747.858 602.634 738.903 611.588 727.858 611.588L149.858 611.588Z" fill="#F4D061" stroke="#F4D061" stroke-width="26" mask="url(#path-5-inside-1_172_6)"/>
</svg>
