<svg width="1006" height="1006" viewBox="0 0 1006 1006" fill="none" xmlns="http://www.w3.org/2000/svg">
<circle cx="503" cy="503" r="488.5" stroke="#F4D061" stroke-width="29"/>
<path d="M155.729 581.906L159.358 583.588L155.813 585.442L155.892 585.593C159.519 592.531 162.343 597.934 164.824 601.947C167.296 605.946 169.723 609.078 172.743 611.017C180.847 616.217 191.274 616.071 199.229 610.646C202.194 608.624 204.531 605.425 206.89 601.358C209.258 597.276 211.93 591.796 215.361 584.76L215.436 584.606L372.633 262.228C372.739 262.01 372.844 261.796 372.947 261.585C375.57 256.209 377.265 252.734 377.849 249.374C379.26 241.26 376.411 232.989 370.303 227.464C367.773 225.176 364.298 223.483 358.92 220.862C358.709 220.759 358.495 220.655 358.277 220.549C358.056 220.441 357.837 220.334 357.622 220.229C352.152 217.56 348.618 215.836 345.213 215.256C336.988 213.856 328.626 216.828 323.13 223.105C320.855 225.704 319.202 229.271 316.643 234.794C316.542 235.012 316.44 235.232 316.336 235.456L155.729 581.906Z" fill="#F4D061" stroke="#F4D061" stroke-width="8"/>
<rect x="713.319" y="232.825" width="68" height="512" rx="24" fill="#F4D061" stroke="#F4D061" stroke-width="8"/>
<rect x="464.319" y="232.825" width="68" height="512" rx="24" fill="#F4D061" stroke="#F4D061" stroke-width="8"/>
<path d="M154.858 586.088L154.858 620.588C154.858 633.843 165.603 644.588 178.858 644.588L756.858 644.588C770.112 644.588 780.858 633.843 780.858 620.588L780.858 602.588C780.858 589.334 770.112 578.588 756.858 578.588L162.358 578.588C158.216 578.588 154.858 581.946 154.858 586.088Z" fill="#F4D061" stroke="#F4D061" stroke-width="8"/>
</svg>
