<svg width="1038" height="1038" viewBox="0 0 1038 1038" fill="none" xmlns="http://www.w3.org/2000/svg">
<circle cx="519" cy="519" r="496.5" stroke="#D19C3B" stroke-width="45"/>
<path d="M171.729 597.906L170.9 599.695L171.813 601.442L171.892 601.593C175.519 608.531 178.343 613.934 180.824 617.947C183.296 621.946 185.723 625.078 188.743 627.017C196.847 632.217 207.274 632.071 215.229 626.646C218.194 624.624 220.531 621.425 222.89 617.358C225.258 613.276 227.93 607.796 231.361 600.76L231.436 600.606L388.633 278.228C388.739 278.01 388.844 277.796 388.947 277.585C391.57 272.209 393.265 268.734 393.849 265.374C395.26 257.26 392.411 248.989 386.303 243.464C383.773 241.176 380.298 239.483 374.92 236.862C374.709 236.759 374.495 236.655 374.277 236.549C374.056 236.441 373.837 236.334 373.622 236.229C368.152 233.56 364.618 231.836 361.213 231.256C352.988 229.856 344.626 232.828 339.13 239.105C336.855 241.704 335.202 245.271 332.643 250.794C332.542 251.012 332.44 251.232 332.336 251.456L171.729 597.906Z" fill="#D19C3B" stroke="#D19C3B" stroke-width="8"/>
<rect x="729.319" y="248.825" width="68" height="512" rx="24" fill="#D19C3B" stroke="#D19C3B" stroke-width="8"/>
<rect x="480.319" y="248.825" width="68" height="512" rx="24" fill="#D19C3B" stroke="#D19C3B" stroke-width="8"/>
<path d="M170.858 636.588C170.858 649.843 181.603 660.588 194.858 660.588L772.858 660.588C786.113 660.588 796.858 649.843 796.858 636.588L796.858 618.588C796.858 605.334 786.113 594.588 772.858 594.588L178.358 594.588C174.216 594.588 170.858 597.946 170.858 602.088L170.858 636.588Z" fill="#D19C3B" stroke="#D19C3B" stroke-width="8"/>
</svg>
